<?xml version="1.0" encoding="UTF-8"?>
<svg version="1.1" viewBox="0 0 1252 1264" width="313" height="316" xmlns="http://www.w3.org/2000/svg">
<path transform="translate(0)" d="m0 0h1252v1264h-1252z" fill="#282828"/>
<path transform="translate(652,225)" d="m0 0h225l23 1 21 3 10 2 7 2 10 3 8 3 10 4v2l6 1v2l5 1 4 2v2l5 1 14 10 6 5v2l5 2 12 12v3l4 2v3l3 1v3l3 1 2 3v3h2l3 5v3h2l2 7h2l8 17 5 15 4 16 3 22v37l-4 27-9 41-16 66-9 38-14 59-7 30-10 40-14 60-13 53-11 47-7 27-7 8-14 12-17 13-13 11-9 7-10 8-16 13-14 11-17 14-10 8-22 18-14 11-11 9-12 10-9 7-14 11-17 14-14 11-11 9-16 13-14 11-12 9-3 1-123 1h-420l1-10 30-127 12-49 24-100 22-91 21-88 33-137 16-67 6-21 10 2 40 10 29 8 18 5 10 4 5 7-2 1 4 6 3 4v2l4 1 2 5v3l4 2 1 3h2l4 8v2h3l1 7h2l5 12 4 4v2h2l1 7-1 3 6-1 3 8 5 8-2 4 1 5h5l3 3v4l1 9 5 6-1 9 4 2 1 7 1 2h2l1-6 3-2h3v-2h2l1-3h1l-1 11-2 11h-2l-1 9-15 63-2 11-5 18-16 68-1 7-1 1-1 7-3 9-13 56-5 20 233 1 13 1-1 5-8 2h-4l-2 6-1 4 9 7 4 2 3 5 2 84 2 64v51l3-2 11-48 19-79 14-59 12-50 9-37 5-21 9-39 9-36 7-31 9-36 6-27 4-15 11-47 7-29 15-63 3-10 3-1 27 3 25 5 24 8 17 8 13 8 14 10 14 12 6 6v2h2l10 13 5 7-9-18-4-10-3-5-2-6 2-2h3l2-6 4-4 11-1v2h2v2h2v2h2v2h2l5 7v3h2v3l6 2-4-10-10-19-10-14-11-12v-2l-4-2-10-9-16-11-18-10-20-8-21-6-24-4-55-1-512-1 2-4 11-8 14-12 9-7 16-13 14-11 11-9 16-13 10-8 14-11 17-14 14-11 13-11 9-7 16-13 10-8 11-9 14-11 16-13 14-11 13-11 20-15 12-5 6-1z" fill="#A0A0A0"/>
<path transform="translate(278,461)" d="m0 0 513 1 55 1 24 4 24 7 21 9 19 11 17 13 8 7 7 8 11 14 9 15 9 19-1 2-6-3v-3h-2l-4-7-1-3h-2v-2h-2v-2h-2v-2l-7-1-8 2-2 6h-2v2l-4 2 4 10 4 7 4 11 5 8 1 5-4-4-7-10-5-6v-2h-2l-7-8-10-9-14-10-13-8-16-8-12-5-20-6-21-4-29-3-5 18-8 33-6 27-11 45-6 26-4 15-7 31-5 21-4 15-3 15-14 56-7 31-6 25-8 33-16 67-20 83-16 68-4 18-4 2-2-90-2-65-1-44-3-5-6-3-7-6 1-4 3-6 12-3 1-4-242-1-4-1 1-8 11-46 7-30 1-1 1-7 1-1 4-20 9-38 8-33 2-6 3-15 15-64h2v-8l2-8v-5l-1 2h-2v2l-6 2-1 6-3 1-2-10-3-2v-9l-5-6-1-9-1-2h2l-3-4-5-1-2-6 2-4-6-8-1-6h-6v-10h-2l-5-6-4-9v-3h-2l-1-7h-3l-4-8v-2h-2l-5-5-2-8-4-1-4-6-3-4 1-3-4-6-17-6-25-7-34-9-28-7-3-1z" fill="#282828"/>
<path transform="translate(278,461)" d="m0 0 513 1v1h-277l-1 8-8 36-5 21h-2l-2 12-9 39-7 29-3 16-3 12h-1v-10l-1 2h-2v2l-6 2-1 6-3 1-2-10-3-2v-9l-5-6-1-9-1-2h2l-3-4-5-1-2-6 2-4-6-8-1-6h-6v-10h-2l-5-6-4-9v-3h-2l-1-7h-3l-4-8v-2h-2l-5-5-2-8-4-1-4-6-3-4 1-3-4-6-17-6-25-7-34-9-28-7-3-1z" fill="#474747"/>
<path transform="translate(793,463)" d="m0 0h53l24 4 24 7 21 9 19 11 17 13 8 7 7 8 11 14 9 15 9 19-1 2-6-3v-3h-2l-4-7-1-3h-2v-2h-2v-2h-2v-2l-7-1-8 2-2 6h-2v2l-4 2 4 10 4 7 4 11 5 8 1 5-4-4-7-10-5-6v-2h-2l-7-8-10-9-14-10-13-8-16-8-12-5-20-6-21-4-30-3v-22l-4-14-6-10-1-4-4-2z" fill="#636363"/>
<path transform="translate(848,226)" d="m0 0h20l42 1 21 4 7 2 10 3 8 3 10 4v2l6 1v2l5 1 4 2v2l5 1 14 10 6 5v2l5 2 12 12v3l4 2v3l3 1v3l3 1 2 3v3h2l3 5v3h2l2 7h2l8 17 5 15 4 16 3 22v37l-4 27-9 41-2 8h-2l1-9 2-10 1-13 1-15 1-7 1-25-1-24-3-13-4-14-6-11-7-6-8-8v-2h-2l-1-3-5-3-4-5-8-7v-2l-4-2-5-5-8-7-7-6-6-4-10-9-11-7-8-7-5-5-9-6-5-4v-2h-2v-2l-5-2-7-5v-2l-4-2-11-5-15-4-27-4-21-2-31-2-5-4z" fill="#ECECEC"/>
<path transform="translate(713,915)" d="m0 0 1 3-14 59-20 83-16 68-4 18-4 2-2-90-2-65-1-44-3-5-6-3-7-6 1-4 3-6 12-3 1-4-242-1v-1h300z" fill="#464646"/>
<path transform="translate(343,480)" d="m0 0 8 1 47 13 35 10 41 12 15 4 10 3-1 8-10 44-8 33-3 16-3 12h-1v-10l-1 2h-2v2l-6 2-1 6-3 1-2-10-3-2v-9l-5-6-1-9-1-2h2l-3-4-5-1-2-6 2-4-6-8-1-6h-6v-10h-2l-5-6-4-9v-3h-2l-1-7h-3l-4-8v-2h-2l-5-5-2-8-4-1-4-6-3-4 1-3-4-6-17-6-25-7z" fill="#646464"/>
<path transform="translate(933,229)" d="m0 0 12 3 7 2 5 2 9 3 1 2h4v2l4 1v2l4-1 6 4 1 2 5 1 1 3 6 2 1 2 4 2v2l4 1 6 4 3 4 3 2 2 2v2l2 3 5 2 5 5v2l2 1 4 5 1 4h2v4l2 1 5 8 3 6 1 4 3 3 2 6 3 8 2 6 4 15 2 10v27l2 4v24l-2 10v10l-3 13-2 7-1 10h-2l-1 6-2 6-3 11-1 2-2-1 1-11 8-36 4-27v-37l-4-26-5-18-6-16-4-8v-2h-2l-2-7h-2l-3-6v-2h-2l-3-6-2-1-1-3-2-1-2-4-2-1-3-5-10-10-4-2-5-5-12-9-8-4v-2l-9-3v-2l-6-1v-2l-5-1-7-3-21-7z" fill="#202020"/>
<path transform="translate(772,220)" d="m0 0h7l7 1 12-1 9 1 12-1 4 1h72l8 2 18 2 7 2 1 4-13-2-16-2-23-1-286-1 2-2 4-1 5 1h8l14-1 4 1 5-1h10l21-1h95z" fill="#1B1B1B"/>
<path transform="translate(410,916)" d="m0 0h243l2 93 2 78v58h2l1-3-1 5-3 1-2-90-2-65-1-44-3-5-6-3-7-6 1-4 3-6 12-3 1-4-242-1z" fill="#5B5B5B"/>
<path transform="translate(1067,394)" d="m0 0 4 8v24l-2 10v10l-3 13-2 7-1 10h-2l-1 6-2 6-3 11-1 2-2-1 1-11 8-36 4-27 1-9z" fill="#1E1E1E"/>
<path transform="translate(633,463)" d="m0 0h156l1 2-1 2h-44l-9-1-3 1-17-1h-16l-6-1h-9l-6 1-16-1h-27z" fill="#1A1A1A"/>
<path transform="translate(793,463)" d="m0 0h53l24 4 24 7 21 9 3 3-6-2-7-2v-2l-10-3-10-2-3-1-2-2-10-2-2 1v-3l-12-1-9-1-3 1-9 1h-26l-4-1-3 1v-2l-2 1-1 2-4-1z" fill="#464646"/>
<path transform="translate(848,464)" d="m0 0 17 2 23 6 16 6 14 7-2 1-10-4-1-2-10-3-10-2-3-1-2-2-10-2-2 1v-3l-12-1-8-1z" fill="#4C4C4C"/>
<path transform="translate(596,222)" d="m0 0 6 1h8l14-1 4 2v1h-37l2-2z" fill="#1A1A1A"/>
<path transform="translate(1055,486)" d="m0 0 3 1-1 6-2 6-1 2-2-1 1-11z" fill="#1D1D1D"/>
<path transform="translate(1053,482)" d="m0 0h1v7l-3 13h-2l1-9 2-10z" fill="#D3D3D3"/>
<path transform="translate(933,229)" d="m0 0 12 3v3l-7-1-6-3z" fill="#1E1E1E"/>
<path transform="translate(1051,501)" d="m0 0 3 4-3 5v4h-2l-1 2 1-10z" fill="#212121"/>
<path transform="translate(577,224)" d="m0 0h14v1l-10 2h-8z" fill="#222"/>
<path transform="translate(880,471)" d="m0 0 8 1 6 2v2l-11-1z" fill="#4A4A4A"/>
<path transform="translate(787,602)" d="m0 0h1v7l-1 4h-2l-1-4 1-5h2z" fill="#232323"/>
</svg>
